<?xml version="1.0" encoding="UTF-8"?>
<svg width="557px" height="423px" viewBox="0 0 557 423" version="1.1" xmlns="http://www.w3.org/2000/svg" xmlns:xlink="http://www.w3.org/1999/xlink">
    <!-- Generator: Sketch 51.2 (57519) - http://www.bohemiancoding.com/sketch -->
    <title>shopping-cart-empty-side-view-svgrepo-com</title>
    <desc>Created with Sketch.</desc>
    <defs></defs>
    <g id="Page-1" stroke="none" stroke-width="1" fill="none" fill-rule="evenodd">
        <g id="shopping-cart-empty-side-view-svgrepo-com" transform="translate(1.000000, 1.000000)" fill="#C90EA5" fill-rule="nonzero" stroke="#979797">
            <path d="M551.79772,80.2964129 C548.620631,76.6265504 543.508474,74.358163 537.955399,74.1669618 L193.683408,62.2063734 C183.805618,61.8580067 175.551148,68.0044758 175.128861,75.9288161 C174.709058,83.8501532 182.322645,90.5431976 192.153239,90.8835558 L513.117469,102.035293 L450.009156,260.736324 L169.169646,260.736324 L118.431858,38.0709711 C117.316524,33.1908348 113.15948,29.1195498 107.426313,27.3066417 L24.3264341,0.993947898 C15.1677734,-1.89609384 4.83291922,1.72972229 1.23602728,9.10248205 C-2.35465455,16.479246 2.14270239,24.8140183 11.2963949,27.7130695 L85.1854482,51.1086932 L136.818733,277.682159 C138.374985,284.493328 145.740167,289.440535 154.336193,289.440535 L162.901167,289.440535 L143.343067,333.226619 C141.706084,336.89448 142.380501,340.967767 145.166354,344.15412 C147.94848,347.341475 152.473162,349.237471 157.30338,349.237471 L171.021499,349.237471 C162.521109,356.862496 157.30338,366.902062 157.30338,377.942683 C157.30338,401.685672 181.273137,421 210.725174,421 C240.177211,421 264.146968,401.685672 264.146968,377.942683 C264.146968,366.903064 258.92924,356.862496 250.430092,349.237471 L366.903067,349.237471 C358.398951,356.862496 353.182464,366.902062 353.182464,377.942683 C353.182464,401.685672 377.146012,421 406.604258,421 C436.063747,421 460.026053,401.685672 460.026053,377.942683 C460.026053,366.903064 454.809566,356.862496 446.31166,349.237471 L462.994482,349.237471 C471.191819,349.237471 477.834145,343.882835 477.834145,337.277883 C477.834145,330.67093 471.190577,325.317295 462.994482,325.317295 L178.417732,325.317295 L194.442283,289.436531 L462.99324,289.436531 C470.737239,289.436531 477.589467,285.404287 479.948065,279.466037 L554.145139,92.8826598 C555.849191,88.6241778 554.974809,83.9682775 551.79772,80.2964129 Z M210.726416,397.083828 C197.631792,397.083828 186.982707,388.501796 186.982707,377.947688 C186.982707,367.39358 197.631792,358.810546 210.726416,358.810546 C223.82104,358.810546 234.468884,367.39358 234.468884,377.947688 C234.468884,388.501796 223.82104,397.083828 210.726416,397.083828 Z M406.604258,397.083828 C393.509634,397.083828 382.861791,388.501796 382.861791,377.947688 C382.861791,367.39358 393.509634,358.810546 406.604258,358.810546 C419.698883,358.810546 430.346726,367.39358 430.346726,377.947688 C430.346726,388.501796 419.698883,397.083828 406.604258,397.083828 Z" id="Shape"></path>
        </g>
    </g>
</svg>